<svg width="24" height="24" viewBox="0 0 24 24" fill="none" xmlns="http://www.w3.org/2000/svg">
<path d="M12 2.625C10.7587 2.625 9.75 3.63375 9.75 4.875C9.75 5.85188 10.3781 6.68438 11.25 6.99375V8.625H9.75C9.33562 8.625 9 8.96063 9 9.375C9 9.78938 9.33562 10.125 9.75 10.125H11.25V17.9456C10.7494 17.6869 10.1831 17.505 9.64125 17.3325C7.71937 16.7175 5.73938 16.0744 5.63438 12.6506C5.74875 12.7144 5.87438 12.75 6 12.75C6.19125 12.75 6.38437 12.6769 6.53063 12.5306C6.82313 12.2381 6.82313 11.7619 6.53063 11.4694L5.40563 10.3444C5.11313 10.0519 4.63688 10.0519 4.34438 10.3444L3.21937 11.4694C2.92688 11.7619 2.92688 12.2381 3.21937 12.5306C3.46875 12.78 3.8475 12.8138 4.13625 12.6394C4.25063 17.1713 7.20938 18.1294 9.18375 18.7613C10.6837 19.2394 11.25 19.4925 11.25 20.25V20.625C11.25 21.0394 11.5856 21.375 12 21.375C12.4144 21.375 12.75 21.0394 12.75 20.625V20.25C12.75 19.4925 13.3162 19.2394 14.8162 18.7613C16.7906 18.1294 19.7494 17.1713 19.8637 12.6394C19.9819 12.7125 20.115 12.75 20.25 12.75C20.4412 12.75 20.6344 12.6769 20.7806 12.5306C21.0731 12.2381 21.0731 11.7619 20.7806 11.4694L19.6556 10.3444C19.3631 10.0519 18.8869 10.0519 18.5944 10.3444L17.4694 11.4694C17.1769 11.7619 17.1769 12.2381 17.4694 12.5306C17.7131 12.7725 18.0787 12.8119 18.3656 12.6506C18.2606 16.0744 16.2806 16.7175 14.3587 17.3325C13.8169 17.505 13.2506 17.6869 12.75 17.9456V10.125H14.25C14.6644 10.125 15 9.78938 15 9.375C15 8.96063 14.6644 8.625 14.25 8.625H12.75V6.99375C13.6219 6.68438 14.25 5.85188 14.25 4.875C14.25 3.63375 13.2412 2.625 12 2.625ZM12 4.125C12.4144 4.125 12.75 4.46063 12.75 4.875C12.75 5.28938 12.4144 5.625 12 5.625C11.5856 5.625 11.25 5.28938 11.25 4.875C11.25 4.46063 11.5856 4.125 12 4.125Z" fill="currentColor"/>
</svg>
