<svg width="24" height="24" viewBox="0 0 24 24" fill="none" xmlns="http://www.w3.org/2000/svg">
<path d="M22 12C22 6.48603 17.514 2 12 2C6.48604 2 2 6.48603 2 12C2 17.514 6.48604 22 12 22C17.514 22 22 17.514 22 12ZM20.5 12C20.5 16.7033 16.7033 20.5 12 20.5C7.2967 20.5 3.5 16.7033 3.5 12C3.5 7.29669 7.2967 3.5 12 3.5C16.7033 3.5 20.5 7.29669 20.5 12ZM15.7578 12.7422C15.7578 12.5929 15.7132 12.4471 15.6298 12.3233C15.5464 12.1995 15.428 12.1034 15.2897 12.0473C15.1514 11.9912 14.9994 11.9776 14.8534 12.0083C14.7073 12.0391 14.5737 12.1127 14.4697 12.2197L12.75 13.9395L12.75 8.25C12.7514 8.15061 12.733 8.05194 12.696 7.95972C12.6589 7.86749 12.6039 7.78355 12.5341 7.71277C12.4643 7.642 12.3812 7.58579 12.2895 7.54743C12.1978 7.50907 12.0994 7.48932 12 7.48932C11.9006 7.48932 11.8022 7.50907 11.7105 7.54743C11.6188 7.58579 11.5357 7.64199 11.4659 7.71277C11.3961 7.78355 11.3411 7.86749 11.304 7.95972C11.267 8.05194 11.2486 8.15061 11.25 8.25L11.25 13.9395L9.53027 12.2197C9.46116 12.1477 9.37839 12.0903 9.28679 12.0507C9.1952 12.0111 9.09662 11.9902 8.99684 11.9892C8.89706 11.9882 8.79808 12.0071 8.7057 12.0448C8.61332 12.0825 8.52939 12.1383 8.45884 12.2088C8.38828 12.2794 8.33251 12.3633 8.29479 12.4557C8.25707 12.5481 8.23817 12.6471 8.23918 12.7468C8.2402 12.8466 8.26111 12.9452 8.3007 13.0368C8.34028 13.1284 8.39775 13.2112 8.46973 13.2803L11.4697 16.2803C11.6104 16.4209 11.8011 16.4999 12 16.4999C12.1989 16.4999 12.3896 16.4209 12.5303 16.2803L15.5303 13.2803C15.6023 13.2104 15.6595 13.1267 15.6986 13.0343C15.7377 12.9419 15.7578 12.8425 15.7578 12.7422Z" fill="currentColor"/>
</svg>
