<svg width="24" height="24" viewBox="0 0 24 24" fill="none" xmlns="http://www.w3.org/2000/svg">
<path d="M12 2C6.48603 2 2 6.48604 2 12C2 17.514 6.48603 22 12 22C17.514 22 22 17.514 22 12C22 6.48604 17.514 2 12 2ZM12 3.5C16.7033 3.5 20.5 7.2967 20.5 12C20.5 16.7033 16.7033 20.5 12 20.5C7.29669 20.5 3.5 16.7033 3.5 12C3.5 7.2967 7.29669 3.5 12 3.5ZM12.7422 8.24219C12.5929 8.24222 12.4471 8.28679 12.3233 8.37019C12.1995 8.45358 12.1034 8.57202 12.0473 8.71033C11.9912 8.84865 11.9776 9.00056 12.0083 9.14662C12.0391 9.29269 12.1127 9.42627 12.2197 9.53027L13.9395 11.25H8.25C8.15062 11.2486 8.05194 11.267 7.95972 11.304C7.86749 11.3411 7.78355 11.3961 7.71277 11.4659C7.642 11.5357 7.58579 11.6188 7.54743 11.7105C7.50907 11.8022 7.48932 11.9006 7.48932 12C7.48932 12.0994 7.50907 12.1978 7.54743 12.2895C7.58579 12.3812 7.642 12.4643 7.71277 12.5341C7.78355 12.6039 7.86749 12.6589 7.95972 12.696C8.05194 12.733 8.15062 12.7514 8.25 12.75H13.9395L12.2197 14.4697C12.1477 14.5388 12.0903 14.6216 12.0507 14.7132C12.0111 14.8048 11.9902 14.9034 11.9892 15.0032C11.9882 15.1029 12.0071 15.2019 12.0448 15.2943C12.0825 15.3867 12.1383 15.4706 12.2088 15.5412C12.2794 15.6117 12.3633 15.6675 12.4557 15.7052C12.5481 15.7429 12.6471 15.7618 12.7468 15.7608C12.8466 15.7598 12.9452 15.7389 13.0368 15.6993C13.1284 15.6597 13.2112 15.6023 13.2803 15.5303L16.2803 12.5303C16.4209 12.3896 16.4999 12.1989 16.4999 12C16.4999 11.8011 16.4209 11.6104 16.2803 11.4697L13.2803 8.46973C13.2104 8.39773 13.1267 8.3405 13.0343 8.30142C12.9419 8.26233 12.8425 8.24219 12.7422 8.24219Z" fill="currentColor"/>
</svg>
