<svg width="24" height="24" viewBox="0 0 24 24" fill="none" xmlns="http://www.w3.org/2000/svg">
<path d="M6.25 2C5.01625 2 4 3.01625 4 4.25V19.75C4 20.9837 5.01625 22 6.25 22H17.75C18.9837 22 20 20.9837 20 19.75V4.25C20 3.01625 18.9837 2 17.75 2H6.25ZM6.25 3.5H17.75C18.1732 3.5 18.5 3.82675 18.5 4.25V19.75C18.5 20.1732 18.1732 20.5 17.75 20.5H6.25C5.82675 20.5 5.5 20.1732 5.5 19.75V4.25C5.5 3.82675 5.82675 3.5 6.25 3.5ZM8.75 6C8.65062 5.99859 8.55194 6.01695 8.45972 6.05402C8.36749 6.09108 8.28355 6.1461 8.21277 6.21588C8.142 6.28566 8.08579 6.36882 8.04743 6.46051C8.00907 6.5522 7.98932 6.65061 7.98932 6.75C7.98932 6.84939 8.00907 6.9478 8.04743 7.03949C8.08579 7.13118 8.142 7.21434 8.21277 7.28412C8.28355 7.3539 8.36749 7.40892 8.45972 7.44598C8.55194 7.48304 8.65062 7.5014 8.75 7.5H11.25C11.3494 7.5014 11.4481 7.48304 11.5403 7.44598C11.6325 7.40892 11.7164 7.3539 11.7872 7.28412C11.858 7.21434 11.9142 7.13118 11.9526 7.03949C11.9909 6.9478 12.0107 6.84939 12.0107 6.75C12.0107 6.65061 11.9909 6.5522 11.9526 6.46051C11.9142 6.36882 11.858 6.28566 11.7872 6.21588C11.7164 6.1461 11.6325 6.09108 11.5403 6.05402C11.4481 6.01695 11.3494 5.99859 11.25 6H8.75ZM8.75 10.5C8.65062 10.4986 8.55194 10.517 8.45972 10.554C8.36749 10.5911 8.28355 10.6461 8.21277 10.7159C8.142 10.7857 8.08579 10.8688 8.04743 10.9605C8.00907 11.0522 7.98932 11.1506 7.98932 11.25C7.98932 11.3494 8.00907 11.4478 8.04743 11.5395C8.08579 11.6312 8.142 11.7143 8.21277 11.7841C8.28355 11.8539 8.36749 11.9089 8.45972 11.946C8.55194 11.983 8.65062 12.0014 8.75 12H15.25C15.3494 12.0014 15.4481 11.983 15.5403 11.946C15.6325 11.9089 15.7164 11.8539 15.7872 11.7841C15.858 11.7143 15.9142 11.6312 15.9526 11.5395C15.9909 11.4478 16.0107 11.3494 16.0107 11.25C16.0107 11.1506 15.9909 11.0522 15.9526 10.9605C15.9142 10.8688 15.858 10.7857 15.7872 10.7159C15.7164 10.6461 15.6325 10.5911 15.5403 10.554C15.4481 10.517 15.3494 10.4986 15.25 10.5H8.75ZM8.75 13.5C8.65062 13.4986 8.55194 13.517 8.45972 13.554C8.36749 13.5911 8.28355 13.6461 8.21277 13.7159C8.142 13.7857 8.08579 13.8688 8.04743 13.9605C8.00907 14.0522 7.98932 14.1506 7.98932 14.25C7.98932 14.3494 8.00907 14.4478 8.04743 14.5395C8.08579 14.6312 8.142 14.7143 8.21277 14.7841C8.28355 14.8539 8.36749 14.9089 8.45972 14.946C8.55194 14.983 8.65062 15.0014 8.75 15H15.25C15.3494 15.0014 15.4481 14.983 15.5403 14.946C15.6325 14.9089 15.7164 14.8539 15.7872 14.7841C15.858 14.7143 15.9142 14.6312 15.9526 14.5395C15.9909 14.4478 16.0107 14.3494 16.0107 14.25C16.0107 14.1506 15.9909 14.0522 15.9526 13.9605C15.9142 13.8688 15.858 13.7857 15.7872 13.7159C15.7164 13.6461 15.6325 13.5911 15.5403 13.554C15.4481 13.517 15.3494 13.4986 15.25 13.5H8.75ZM8.75 16.5C8.65062 16.4986 8.55194 16.517 8.45972 16.554C8.36749 16.5911 8.28355 16.6461 8.21277 16.7159C8.142 16.7857 8.08579 16.8688 8.04743 16.9605C8.00907 17.0522 7.98932 17.1506 7.98932 17.25C7.98932 17.3494 8.00907 17.4478 8.04743 17.5395C8.08579 17.6312 8.142 17.7143 8.21277 17.7841C8.28355 17.8539 8.36749 17.9089 8.45972 17.946C8.55194 17.983 8.65062 18.0014 8.75 18H13.25C13.3494 18.0014 13.4481 17.983 13.5403 17.946C13.6325 17.9089 13.7164 17.8539 13.7872 17.7841C13.858 17.7143 13.9142 17.6312 13.9526 17.5395C13.9909 17.4478 14.0107 17.3494 14.0107 17.25C14.0107 17.1506 13.9909 17.0522 13.9526 16.9605C13.9142 16.8688 13.858 16.7857 13.7872 16.7159C13.7164 16.6461 13.6325 16.5911 13.5403 16.554C13.4481 16.517 13.3494 16.4986 13.25 16.5H8.75Z" fill="currentColor"/>
</svg>
