<svg width="24" height="24" viewBox="0 0 24 24" fill="none" xmlns="http://www.w3.org/2000/svg">
<path d="M7.74023 2.50002C7.72719 2.50065 7.71417 2.50163 7.70117 2.50295C7.68911 2.50331 7.67707 2.50396 7.66504 2.5049C7.65557 2.50635 7.64613 2.50797 7.63672 2.50978C7.62267 2.51134 7.60867 2.51329 7.59473 2.51564C7.58359 2.51832 7.57252 2.52125 7.56152 2.52443C7.5494 2.52738 7.53735 2.53064 7.52539 2.5342C7.51024 2.53925 7.49526 2.54479 7.48047 2.5508C7.47128 2.55452 7.46216 2.55843 7.45312 2.56252C7.44492 2.56595 7.43678 2.56953 7.42871 2.57326C7.41416 2.57996 7.39983 2.58712 7.38574 2.59474C7.3785 2.59918 7.37134 2.60374 7.36426 2.60841C7.34897 2.617 7.33399 2.62612 7.31934 2.63576L7.31836 2.63673C7.31409 2.63994 7.30986 2.6432 7.30566 2.6465C7.29095 2.65705 7.27661 2.66812 7.2627 2.6797C7.25233 2.68918 7.24224 2.69895 7.23242 2.709C7.2248 2.71568 7.21731 2.72252 7.20996 2.72951C7.20089 2.73968 7.1921 2.7501 7.18359 2.76076C7.17488 2.7703 7.16641 2.78007 7.1582 2.79005C7.15079 2.79997 7.14363 2.81006 7.13672 2.82033C7.13035 2.82898 7.12416 2.83777 7.11816 2.8467C7.09765 2.87944 7.07969 2.91372 7.06445 2.94923C7.0497 2.98184 7.0373 3.01545 7.02734 3.04982C7.02365 3.06437 7.02039 3.07902 7.01758 3.09377C7.00987 3.12851 7.00465 3.16375 7.00195 3.19923C7.00073 3.21613 7.00008 3.23307 7 3.25002V7.00002H5.25C4.01625 7.00002 3 8.01626 3 9.25001V19.25C3 20.4838 4.01625 21.5 5.25 21.5H16.25C16.4489 21.5 16.6397 21.421 16.7803 21.2803C16.921 21.1397 17 20.9489 17 20.75V17H18.75C19.9838 17 21 15.9838 21 14.75V4.75002C21 3.51627 19.9838 2.50002 18.75 2.50002H7.75C7.74674 2.49999 7.74349 2.49999 7.74023 2.50002ZM10.7695 4.00002H18.75C19.1733 4.00002 19.5 4.32677 19.5 4.75002V14.75C19.5 15.1733 19.1733 15.5 18.75 15.5H17V7.75002C16.9997 7.61369 16.9623 7.48001 16.8918 7.36335C16.8212 7.24669 16.7202 7.15146 16.5996 7.08791L16.6006 7.08693L10.7695 4.00002ZM8.5 4.49611L13.2305 7.00002H8.5V4.49611ZM5.25 8.50001H15.5V20H5.25C4.82675 20 4.5 19.6733 4.5 19.25V9.25001C4.5 8.82677 4.82675 8.50001 5.25 8.50001ZM6.75 10.5C6.55109 10.5 6.36034 10.5791 6.21969 10.7197C6.07904 10.8604 6.00002 11.0511 6 11.25V14.25C6.00002 14.4489 6.07904 14.6397 6.21969 14.7803C6.36034 14.921 6.55109 15 6.75 15H13.25C13.4489 15 13.6397 14.921 13.7803 14.7803C13.921 14.6397 14 14.4489 14 14.25V11.25C14 11.0511 13.921 10.8604 13.7803 10.7197C13.6397 10.5791 13.4489 10.5 13.25 10.5H6.75ZM7.5 12H12.5V13.5H7.5V12ZM6.75 16.5C6.65062 16.4986 6.55194 16.517 6.45972 16.554C6.36749 16.5911 6.28355 16.6461 6.21277 16.7159C6.142 16.7857 6.08579 16.8688 6.04743 16.9605C6.00907 17.0522 5.98932 17.1506 5.98932 17.25C5.98932 17.3494 6.00907 17.4478 6.04743 17.5395C6.08579 17.6312 6.142 17.7144 6.21277 17.7841C6.28355 17.8539 6.36749 17.9089 6.45972 17.946C6.55194 17.9831 6.65062 18.0014 6.75 18H13.25C13.3494 18.0014 13.4481 17.9831 13.5403 17.946C13.6325 17.9089 13.7164 17.8539 13.7872 17.7841C13.858 17.7144 13.9142 17.6312 13.9526 17.5395C13.9909 17.4478 14.0107 17.3494 14.0107 17.25C14.0107 17.1506 13.9909 17.0522 13.9526 16.9605C13.9142 16.8688 13.858 16.7857 13.7872 16.7159C13.7164 16.6461 13.6325 16.5911 13.5403 16.554C13.4481 16.517 13.3494 16.4986 13.25 16.5H6.75Z" fill="currentColor"/>
</svg>
