<svg xmlns="http://www.w3.org/2000/svg" fill="none" viewBox="0 0 25 25" height="25" width="25"> <path fill="currentColor" d="M5.88086 3.10352C4.33612 3.10352 3.06836 4.38584 3.06836 5.94834V18.8794C3.06836 20.4419 4.33612 21.7242 5.88086 21.7242H18.6649C20.2097 21.7242 21.4774 20.4419 21.4774 18.8794V5.94834C21.4774 4.38584 20.2097 3.10352 18.6649 3.10352H5.88086ZM5.88086 4.65524H18.6649C19.3787 4.65524 19.9434 5.22636 19.9434 5.94834V18.8794C19.9434 19.6014 19.3787 20.1725 18.6649 20.1725H5.88086C5.16708 20.1725 4.60245 19.6014 4.60245 18.8794V5.94834C4.60245 5.22636 5.16708 4.65524 5.88086 4.65524ZM7.92631 6.72421C7.22053 6.72421 6.6479 7.30341 6.6479 8.01731C6.6479 8.73121 7.22053 9.31041 7.92631 9.31041C8.6321 9.31041 9.20472 8.73121 9.20472 8.01731C9.20472 7.30341 8.6321 6.72421 7.92631 6.72421ZM7.15927 10.3449C6.87695 10.3449 6.6479 10.5766 6.6479 10.8621V17.5863C6.6479 17.8718 6.87695 18.1035 7.15927 18.1035H8.69336C8.97567 18.1035 9.20472 17.8718 9.20472 17.5863V10.8621C9.20472 10.5766 8.97567 10.3449 8.69336 10.3449H7.15927ZM10.7388 10.3449C10.4565 10.3449 10.2274 10.5766 10.2274 10.8621V17.5863C10.2274 17.8718 10.4565 18.1035 10.7388 18.1035H12.2729C12.5552 18.1035 12.7843 17.8718 12.7843 17.5863V13.707C12.7843 12.9931 13.3569 12.4139 14.0627 12.4139C14.7685 12.4139 15.3411 12.9931 15.3411 13.707V17.5863C15.3411 17.8718 15.5701 18.1035 15.8524 18.1035H17.3865C17.6689 18.1035 17.8979 17.8718 17.8979 17.5863V13.4483C17.8979 11.7377 16.521 10.3449 14.8297 10.3449C14.044 10.3449 13.3276 10.6493 12.7843 11.1423V10.8621C12.7843 10.5766 12.5552 10.3449 12.2729 10.3449H10.7388Z"></path> </svg>