<svg width="24" height="24" viewBox="0 0 24 24" fill="none" xmlns="http://www.w3.org/2000/svg">
<path d="M11.25 2.5C11.0511 2.50002 10.8603 2.57904 10.7197 2.71969C10.579 2.86034 10.5 3.05109 10.5 3.25V5H10.25C9.67101 5 9.15063 5.23747 8.75 5.60254C8.34937 5.23747 7.82899 5 7.25 5H6V3.75C6.00144 3.64962 5.98271 3.54997 5.94493 3.45695C5.90715 3.36394 5.85108 3.27946 5.78005 3.20852C5.70901 3.13757 5.62446 3.08161 5.5314 3.04395C5.43834 3.00629 5.33866 2.98769 5.23828 2.98926C5.03954 2.99236 4.85016 3.07423 4.71173 3.21686C4.5733 3.3595 4.49715 3.55125 4.5 3.75V5.15332C3.63396 5.4674 3 6.28154 3 7.25V18.75C3 19.9837 4.01625 21 5.25 21H7.25C7.82899 21 8.34937 20.7625 8.75 20.3975C9.15063 20.7625 9.67101 21 10.25 21H18.75C19.9838 21 21 19.9837 21 18.75V7.25C21 6.01625 19.9838 5 18.75 5H18.5V3.25C18.5 3.05109 18.421 2.86034 18.2803 2.71969C18.1397 2.57904 17.9489 2.50002 17.75 2.5H11.25ZM12 4H17V5.62695C16.9868 5.70747 16.9868 5.7896 17 5.87012V8.5H12V5.87305C12.0132 5.79253 12.0132 5.7104 12 5.62988V4ZM5.37012 6.5H7.25C7.67325 6.5 8 6.82675 8 7.25V18.75C8 19.1732 7.67325 19.5 7.25 19.5H5.25C4.82675 19.5 4.5 19.1732 4.5 18.75V7.25C4.5 6.83608 4.81691 6.52374 5.22656 6.50977C5.27462 6.51112 5.32269 6.50785 5.37012 6.5ZM10.25 6.5H10.5V9.25C10.5 9.44891 10.579 9.63966 10.7197 9.78031C10.8603 9.92095 11.0511 9.99998 11.25 10H17.75C17.9489 9.99998 18.1397 9.92095 18.2803 9.78031C18.421 9.63966 18.5 9.44891 18.5 9.25V6.5H18.75C19.1733 6.5 19.5 6.82675 19.5 7.25V18.75C19.5 19.1732 19.1733 19.5 18.75 19.5H10.25C9.82675 19.5 9.5 19.1732 9.5 18.75V7.25C9.5 6.82675 9.82675 6.5 10.25 6.5ZM11.75 11.5C11.5511 11.5 11.3603 11.579 11.2197 11.7197C11.079 11.8603 11 12.0511 11 12.25C11 12.4489 11.079 12.6397 11.2197 12.7803C11.3603 12.921 11.5511 13 11.75 13C11.9489 13 12.1397 12.921 12.2803 12.7803C12.421 12.6397 12.5 12.4489 12.5 12.25C12.5 12.0511 12.421 11.8603 12.2803 11.7197C12.1397 11.579 11.9489 11.5 11.75 11.5ZM14.5 11.5C14.3011 11.5 14.1103 11.579 13.9697 11.7197C13.829 11.8603 13.75 12.0511 13.75 12.25C13.75 12.4489 13.829 12.6397 13.9697 12.7803C14.1103 12.921 14.3011 13 14.5 13C14.6989 13 14.8897 12.921 15.0303 12.7803C15.171 12.6397 15.25 12.4489 15.25 12.25C15.25 12.0511 15.171 11.8603 15.0303 11.7197C14.8897 11.579 14.6989 11.5 14.5 11.5ZM17.25 11.5C17.0511 11.5 16.8603 11.579 16.7197 11.7197C16.579 11.8603 16.5 12.0511 16.5 12.25C16.5 12.4489 16.579 12.6397 16.7197 12.7803C16.8603 12.921 17.0511 13 17.25 13C17.4489 13 17.6397 12.921 17.7803 12.7803C17.921 12.6397 18 12.4489 18 12.25C18 12.0511 17.921 11.8603 17.7803 11.7197C17.6397 11.579 17.4489 11.5 17.25 11.5ZM11.75 14C11.5511 14 11.3603 14.079 11.2197 14.2197C11.079 14.3603 11 14.5511 11 14.75C11 14.9489 11.079 15.1397 11.2197 15.2803C11.3603 15.421 11.5511 15.5 11.75 15.5C11.9489 15.5 12.1397 15.421 12.2803 15.2803C12.421 15.1397 12.5 14.9489 12.5 14.75C12.5 14.5511 12.421 14.3603 12.2803 14.2197C12.1397 14.079 11.9489 14 11.75 14ZM14.5 14C14.3011 14 14.1103 14.079 13.9697 14.2197C13.829 14.3603 13.75 14.5511 13.75 14.75C13.75 14.9489 13.829 15.1397 13.9697 15.2803C14.1103 15.421 14.3011 15.5 14.5 15.5C14.6989 15.5 14.8897 15.421 15.0303 15.2803C15.171 15.1397 15.25 14.9489 15.25 14.75C15.25 14.5511 15.171 14.3603 15.0303 14.2197C14.8897 14.079 14.6989 14 14.5 14ZM17.25 14C17.0511 14 16.8603 14.079 16.7197 14.2197C16.579 14.3603 16.5 14.5511 16.5 14.75C16.5 14.9489 16.579 15.1397 16.7197 15.2803C16.8603 15.421 17.0511 15.5 17.25 15.5C17.4489 15.5 17.6397 15.421 17.7803 15.2803C17.921 15.1397 18 14.9489 18 14.75C18 14.5511 17.921 14.3603 17.7803 14.2197C17.6397 14.079 17.4489 14 17.25 14ZM11.75 16.5C11.5511 16.5 11.3603 16.579 11.2197 16.7197C11.079 16.8603 11 17.0511 11 17.25C11 17.4489 11.079 17.6397 11.2197 17.7803C11.3603 17.921 11.5511 18 11.75 18C11.9489 18 12.1397 17.921 12.2803 17.7803C12.421 17.6397 12.5 17.4489 12.5 17.25C12.5 17.0511 12.421 16.8603 12.2803 16.7197C12.1397 16.579 11.9489 16.5 11.75 16.5ZM14.5 16.5C14.3011 16.5 14.1103 16.579 13.9697 16.7197C13.829 16.8603 13.75 17.0511 13.75 17.25C13.75 17.4489 13.829 17.6397 13.9697 17.7803C14.1103 17.921 14.3011 18 14.5 18C14.6989 18 14.8897 17.921 15.0303 17.7803C15.171 17.6397 15.25 17.4489 15.25 17.25C15.25 17.0511 15.171 16.8603 15.0303 16.7197C14.8897 16.579 14.6989 16.5 14.5 16.5ZM17.25 16.5C17.0511 16.5 16.8603 16.579 16.7197 16.7197C16.579 16.8603 16.5 17.0511 16.5 17.25C16.5 17.4489 16.579 17.6397 16.7197 17.7803C16.8603 17.921 17.0511 18 17.25 18C17.4489 18 17.6397 17.921 17.7803 17.7803C17.921 17.6397 18 17.4489 18 17.25C18 17.0511 17.921 16.8603 17.7803 16.7197C17.6397 16.579 17.4489 16.5 17.25 16.5Z" fill="currentColor"/>
</svg>
