<svg width="20" height="20" viewBox="0 0 20 20" fill="none" xmlns="http://www.w3.org/2000/svg">
<path d="M10 0C4.48603 0 0 4.48604 0 10C0 15.514 4.48603 20 10 20C15.514 20 20 15.514 20 10C20 4.48604 15.514 0 10 0ZM10 1.5C14.7033 1.5 18.5 5.2967 18.5 10C18.5 14.1904 15.4836 17.6532 11.5 18.3603V12.5H13.3125C13.5645 12.5 13.7776 12.3115 13.8086 12.0615L13.9961 10.5615C14.0141 10.4195 13.969 10.2769 13.874 10.1689C13.7795 10.0614 13.6435 10 13.5 10H11.5V8.25C11.5 7.6985 11.9485 7.25 12.5 7.25H13.5C13.776 7.25 14 7.0265 14 6.75V5.0625C14 4.8035 13.8024 4.58745 13.5449 4.56445C13.5154 4.56195 12.81 4.5 11.917 4.5C9.71349 4.5 8.5 5.80809 8.5 8.18359V10H6.5C6.224 10 6 10.2235 6 10.5V12C6 12.2765 6.224 12.5 6.5 12.5H8.5V18.3603C4.51641 17.6532 1.5 14.1904 1.5 10C1.5 5.2967 5.29669 1.5 10 1.5Z" fill="currentColor"/>
</svg>
