<svg width="24" height="24" viewBox="0 0 24 24" fill="none" xmlns="http://www.w3.org/2000/svg"><path d="M12 2C6.0166 2 1 5.78202 1 10.6227C1 14.9405 4.97729 18.4468 10.1685 19.1231H10.1711C10.3054 19.1491 10.4639 19.196 10.5579 19.2376C10.5767 19.2454 10.574 19.248 10.582 19.2532C10.582 19.3078 10.5981 19.5601 10.5713 19.7526C10.5659 19.789 10.4531 20.4341 10.4316 20.5615V20.5641C10.3994 20.741 10.2759 21.1 10.5901 21.5578C10.7458 21.7841 11.0708 21.9688 11.3743 21.9948C11.6777 22.0208 11.957 21.9479 12.2686 21.8205C12.9775 21.5344 14.4009 20.7228 16.0391 19.6355C17.6799 18.5483 19.4497 17.2295 20.6072 15.9628C22.1836 14.3215 23 12.5501 23 10.6227C23 5.78202 17.9834 2 12 2ZM12 3.33177C17.3899 3.33177 21.625 6.68981 21.625 10.6227C21.625 12.2016 21.01 13.5906 19.5974 15.0602L19.5867 15.0758C18.5823 16.1735 16.8555 17.4792 15.2656 18.5327C13.7134 19.5627 12.2659 20.3509 11.8281 20.5381C11.8738 20.2832 11.9329 19.9503 11.9329 19.9503L11.9355 19.9373V19.9269C11.9731 19.6486 12.0779 19.2246 11.8577 18.7018V18.6991C11.6938 18.3168 11.3904 18.1477 11.1406 18.0333C10.8936 17.9188 10.6545 17.8616 10.4558 17.82L10.429 17.8148L10.3994 17.8122C5.70776 17.2217 2.375 14.1524 2.375 10.6227C2.375 6.68721 6.61011 3.33177 12 3.33177ZM11.3071 7.99297C10.9607 7.99817 10.625 8.25308 10.625 8.65885V12.6542C10.625 13.0209 10.9338 13.32 11.3125 13.32C11.6912 13.32 12 13.0209 12 12.6542V10.7371L13.5039 13.0391C13.8906 13.5672 14.75 13.3018 14.75 12.6542V8.65885C14.75 8.29209 14.4412 7.99297 14.0625 7.99297C13.6838 7.99297 13.375 8.29209 13.375 8.65885V10.6565L11.8711 8.27389C11.7261 8.0736 11.5139 7.98776 11.3071 7.99297ZM5.125 7.99297C4.74634 7.99297 4.4375 8.29209 4.4375 8.65885V12.6542C4.4375 13.0209 4.74634 13.32 5.125 13.32H7.1875C7.56616 13.32 7.875 13.0209 7.875 12.6542C7.875 12.2874 7.56616 11.9883 7.1875 11.9883H5.8125V8.65885C5.8125 8.29209 5.50366 7.99297 5.125 7.99297ZM9.25 7.99297C8.87134 7.99297 8.5625 8.29209 8.5625 8.65885V12.6542C8.5625 13.0209 8.87134 13.32 9.25 13.32C9.62866 13.32 9.9375 13.0209 9.9375 12.6542V8.65885C9.9375 8.29209 9.62866 7.99297 9.25 7.99297ZM16.125 7.99297C15.7463 7.99297 15.4375 8.29209 15.4375 8.65885V12.6542C15.4375 13.0209 15.7463 13.32 16.125 13.32H18.1875C18.5662 13.32 18.875 13.0209 18.875 12.6542C18.875 12.2874 18.5662 11.9883 18.1875 11.9883H16.8125V11.3224H18.1875C18.5688 11.3224 18.875 11.0233 18.875 10.6565C18.875 10.2898 18.5688 9.99062 18.1875 9.99062H16.8125V9.32474H18.1875C18.5662 9.32474 18.875 9.02561 18.875 8.65885C18.875 8.29209 18.5662 7.99297 18.1875 7.99297H16.125Z" fill="currentColor" /></svg>