<svg width="24" height="24" viewBox="0 0 24 24" fill="none" xmlns="http://www.w3.org/2000/svg">
<path d="M13.75 1.99996C13.6506 1.99856 13.5519 2.01692 13.4597 2.05398C13.3675 2.09104 13.2835 2.14606 13.2128 2.21584C13.142 2.28563 13.0858 2.36878 13.0474 2.46047C13.0091 2.55217 12.9893 2.65057 12.9893 2.74996C12.9893 2.84936 13.0091 2.94776 13.0474 3.03945C13.0858 3.13115 13.142 3.2143 13.2128 3.28408C13.2835 3.35387 13.3675 3.40889 13.4597 3.44595C13.5519 3.48301 13.6506 3.50137 13.75 3.49996C17.4866 3.49996 20.5 6.51332 20.5 10.25C20.4986 10.3493 20.517 10.448 20.554 10.5402C20.5911 10.6325 20.6461 10.7164 20.7159 10.7872C20.7857 10.858 20.8688 10.9142 20.9605 10.9525C21.0522 10.9909 21.1506 11.0106 21.25 11.0106C21.3494 11.0106 21.4478 10.9909 21.5395 10.9525C21.6312 10.9142 21.7143 10.858 21.7841 10.7872C21.8539 10.7164 21.9089 10.6325 21.946 10.5402C21.983 10.448 22.0014 10.3493 22 10.25C22 5.7026 18.2974 1.99996 13.75 1.99996ZM7.02051 2.0068C6.69138 1.98286 6.35413 2.0165 6.02344 2.11422H6.02246L4.83984 2.46481C3.57862 2.83781 2.59317 3.8385 2.25976 5.10153C1.51948 7.9104 2.36634 11.2351 4.57031 14.9775C6.77119 18.7147 9.27901 21.0899 12.1113 21.8652C13.3868 22.2143 14.7624 21.8808 15.7285 20.9834L16.6289 20.1484C17.6364 19.213 17.7866 17.6549 16.9727 16.5478L15.6719 14.7812C14.9746 13.8341 13.7455 13.4309 12.6152 13.7705L10.5801 14.3798C10.4946 14.4048 10.2902 14.2884 10.1123 14.1347L10.1113 14.1338C9.79446 13.8582 9.35543 13.3013 8.88574 12.5048V12.5039C8.38211 11.6485 8.1673 11.0891 8.08105 10.7588C7.99477 10.4282 8.01571 10.388 8.02832 10.2763C8.03487 10.2206 8.06136 10.1689 8.10644 10.1279L8.10742 10.1269L9.625 8.73922C10.4944 7.9444 10.7569 6.67422 10.2666 5.60543L9.35058 3.60934V3.60836C8.91978 2.66931 8.00763 2.07861 7.02051 2.0068ZM6.91211 3.50289C7.37121 3.5372 7.79397 3.81257 7.9873 4.23434L8.90234 6.23043C9.12402 6.71364 9.01286 7.2666 8.6123 7.63278L7.0957 9.01949C6.7846 9.30316 6.58565 9.6899 6.53808 10.1074V10.1084C6.52569 10.2181 6.49641 10.6264 6.62988 11.1377C6.76335 11.6489 7.03891 12.3251 7.59277 13.2656H7.59375C8.11054 14.1421 8.59897 14.808 9.12793 15.2675H9.12891C9.30069 15.4163 10.0206 16.1063 11 15.8203L11.0029 15.8193L13.0469 15.207C13.5776 15.0475 14.1451 15.2379 14.4639 15.6709L15.7646 17.4375C16.133 17.9393 16.0686 18.6215 15.6084 19.0488L14.708 19.8847C14.1322 20.4199 13.2771 20.6288 12.5068 20.4179C10.2172 19.7912 7.9514 17.7625 5.86328 14.2168C3.77225 10.6662 3.11825 7.72947 3.70996 5.48434C3.90556 4.74336 4.50485 4.12828 5.26562 3.90328L6.44824 3.5527C6.60229 3.50717 6.75908 3.49146 6.91211 3.50289ZM13.75 4.99996C13.6506 4.99856 13.5519 5.01692 13.4597 5.05398C13.3675 5.09104 13.2835 5.14606 13.2128 5.21584C13.142 5.28563 13.0858 5.36878 13.0474 5.46047C13.0091 5.55217 12.9893 5.65057 12.9893 5.74996C12.9893 5.84936 13.0091 5.94776 13.0474 6.03945C13.0858 6.13115 13.142 6.2143 13.2128 6.28408C13.2835 6.35387 13.3675 6.40889 13.4597 6.44595C13.5519 6.48301 13.6506 6.50137 13.75 6.49996C15.8302 6.49996 17.5 8.16971 17.5 10.25C17.4986 10.3493 17.517 10.448 17.554 10.5402C17.5911 10.6325 17.6461 10.7164 17.7159 10.7872C17.7857 10.858 17.8688 10.9142 17.9605 10.9525C18.0522 10.9909 18.1506 11.0106 18.25 11.0106C18.3494 11.0106 18.4478 10.9909 18.5395 10.9525C18.6312 10.9142 18.7143 10.858 18.7841 10.7872C18.8539 10.7164 18.9089 10.6325 18.946 10.5402C18.983 10.448 19.0014 10.3493 19 10.25C19 7.35921 16.6407 4.99996 13.75 4.99996ZM13.75 7.99996C13.6506 7.99856 13.5519 8.01692 13.4597 8.05398C13.3675 8.09104 13.2835 8.14606 13.2128 8.21584C13.142 8.28563 13.0858 8.36878 13.0474 8.46047C13.0091 8.55217 12.9893 8.65057 12.9893 8.74996C12.9893 8.84936 13.0091 8.94776 13.0474 9.03945C13.0858 9.13115 13.142 9.2143 13.2128 9.28408C13.2835 9.35387 13.3675 9.40889 13.4597 9.44595C13.5519 9.48301 13.6506 9.50137 13.75 9.49996C14.1732 9.49996 14.5 9.82671 14.5 10.25C14.4986 10.3493 14.517 10.448 14.554 10.5402C14.5911 10.6325 14.6461 10.7164 14.7159 10.7872C14.7857 10.858 14.8688 10.9142 14.9605 10.9525C15.0522 10.9909 15.1506 11.0106 15.25 11.0106C15.3494 11.0106 15.4478 10.9909 15.5395 10.9525C15.6312 10.9142 15.7143 10.858 15.7841 10.7872C15.8539 10.7164 15.9089 10.6325 15.946 10.5402C15.983 10.448 16.0014 10.3493 16 10.25C16 9.01621 14.9837 7.99996 13.75 7.99996Z" fill="currentColor"/>
</svg>
