<svg width="60" height="60" viewBox="0 0 60 60" fill="none" xmlns="http://www.w3.org/2000/svg">
<g clip-path="url(#clip0_390_12768)">
<path d="M10.457 0C7.99903 0 6 1.99998 6 4.45898V55.541C6 58 7.99903 60 10.457 60H15H49.543C52.001 60 54 58 54 55.541V4.45898C54 1.99998 52.001 0 49.543 0H15H10.457ZM10.457 2H14V58H10.457C9.10203 58 8 56.896 8 55.541V4.45898C8 3.10398 9.10203 2 10.457 2ZM16 2H37V15C37 15.385 37.2194 15.7334 37.5664 15.9004C37.9124 16.0674 38.325 16.0212 38.625 15.7812L43 12.2793L47.375 15.7812C47.556 15.9263 47.777 16 48 16C48.147 16 48.2956 15.9674 48.4336 15.9004C48.7806 15.7334 49 15.385 49 15V2H49.543C50.898 2 52 3.10398 52 4.45898V55.541C52 56.896 50.898 58 49.543 58H16V2ZM39 2H47V12.9199L43.625 10.2188C43.442 10.0728 43.221 10 43 10C42.779 10 42.558 10.0728 42.375 10.2188L39 12.9199V2ZM11 4C10.448 4 10 4.447 10 5V55C10 55.553 10.448 56 11 56C11.552 56 12 55.553 12 55V5C12 4.447 11.552 4 11 4ZM20 20C19.448 20 19 20.447 19 21V39C19 39.553 19.448 40 20 40H48C48.552 40 49 39.553 49 39V21C49 20.447 48.552 20 48 20H20ZM21 22H47V38H21V22ZM25 25C24.448 25 24 25.447 24 26C24 26.553 24.448 27 25 27H35C35.552 27 36 26.553 36 26C36 25.447 35.552 25 35 25H25ZM39 25C38.448 25 38 25.447 38 26C38 26.553 38.448 27 39 27H43C43.552 27 44 26.553 44 26C44 25.447 43.552 25 43 25H39ZM25 29C24.448 29 24 29.447 24 30C24 30.553 24.448 31 25 31H30C30.552 31 31 30.553 31 30C31 29.447 30.552 29 30 29H25ZM34 29C33.448 29 33 29.447 33 30C33 30.553 33.448 31 34 31H43C43.552 31 44 30.553 44 30C44 29.447 43.552 29 43 29H34ZM25 33C24.448 33 24 33.447 24 34C24 34.553 24.448 35 25 35H35C35.552 35 36 34.553 36 34C36 33.447 35.552 33 35 33H25ZM39 33C38.448 33 38 33.447 38 34C38 34.553 38.448 35 39 35H43C43.552 35 44 34.553 44 34C44 33.447 43.552 33 43 33H39Z" fill="currentColor"/>
</g>
<defs>
<clipPath id="clip0_390_12768">
<rect width="60" height="60" fill="white"/>
</clipPath>
</defs>
</svg>
