<svg width="22" height="22" viewBox="0 0 22 22" fill="none" xmlns="http://www.w3.org/2000/svg">
<path d="M5.729 1.83301C4.59749 1.83301 3.6665 2.764 3.6665 3.89551V18.1038C3.6665 19.2354 4.59749 20.1663 5.729 20.1663H16.2707C17.4022 20.1663 18.3332 19.2354 18.3332 18.1038V3.89551C18.3332 2.764 17.4022 1.83301 16.2707 1.83301H5.729ZM5.729 3.20801H16.2707C16.6594 3.20801 16.9582 3.50674 16.9582 3.89551V18.1038C16.9582 18.4926 16.6594 18.7913 16.2707 18.7913H5.729C5.34024 18.7913 5.0415 18.4926 5.0415 18.1038V3.89551C5.0415 3.50674 5.34024 3.20801 5.729 3.20801ZM10.9998 4.58301C10.1139 4.58301 9.39567 5.3012 9.39567 6.18718C9.39567 7.07315 10.1139 7.79134 10.9998 7.79134C11.8858 7.79134 12.604 7.07315 12.604 6.18718C12.604 5.3012 11.8858 4.58301 10.9998 4.58301ZM8.93734 8.70801C8.5588 8.70801 8.24984 9.01697 8.24984 9.39551V9.85384C8.24984 10.7398 9.48161 11.458 10.9998 11.458C12.5181 11.458 13.7498 10.7398 13.7498 9.85384V9.39551C13.7498 9.01697 13.4409 8.70801 13.0623 8.70801H8.93734ZM7.56234 12.833C7.31476 12.8289 7.08354 12.9599 6.95873 13.1747C6.83391 13.3875 6.83391 13.6535 6.95873 13.8663C7.08354 14.0811 7.31476 14.2121 7.56234 14.208H14.4373C14.6849 14.2121 14.9161 14.0811 15.0409 13.8663C15.1658 13.6535 15.1658 13.3875 15.0409 13.1747C14.9161 12.9599 14.6849 12.8289 14.4373 12.833H7.56234ZM7.56234 15.583C7.31476 15.5789 7.08354 15.7099 6.95873 15.9247C6.83391 16.1375 6.83391 16.4035 6.95873 16.6163C7.08354 16.8312 7.31476 16.9621 7.56234 16.958H12.604C12.8516 16.9621 13.0828 16.8312 13.2076 16.6163C13.3324 16.4035 13.3324 16.1375 13.2076 15.9247C13.0828 15.7099 12.8516 15.5789 12.604 15.583H7.56234Z" fill="currentColor"/>
</svg>
