<svg width="22" height="22" viewBox="0 0 22 22" fill="none" xmlns="http://www.w3.org/2000/svg">
<path d="M5.27083 0C2.36737 0 0 2.36737 0 5.27083C0 8.17429 2.36737 10.5417 5.27083 10.5417C8.17429 10.5417 10.5417 8.17429 10.5417 5.27083C10.5417 2.36737 8.17429 0 5.27083 0ZM5.27083 1.375C7.43155 1.375 9.16667 3.11012 9.16667 5.27083C9.16667 7.43155 7.43155 9.16667 5.27083 9.16667C3.11012 9.16667 1.375 7.43155 1.375 5.27083C1.375 3.11012 3.11012 1.375 5.27083 1.375ZM5.2606 2.28144C4.88002 2.28758 4.5772 2.60063 4.58333 2.97917V5.27083C4.58333 5.45294 4.65495 5.62891 4.78385 5.75781L5.70052 6.67448C5.87444 6.85249 6.13021 6.92615 6.37165 6.86272C6.61105 6.79929 6.79929 6.61105 6.86272 6.37165C6.92615 6.13021 6.85249 5.87444 6.67448 5.70052L5.95833 4.98642V2.97917C5.96038 2.79297 5.88877 2.61496 5.75577 2.48196C5.62481 2.351 5.4468 2.27939 5.2606 2.28144ZM10.9182 2.75C11.1125 3.18378 11.2578 3.64416 11.3478 4.125H16.2708C17.1548 4.125 17.875 4.84524 17.875 5.72917V6.41667H11.3478C11.2578 6.89751 11.1125 7.35789 10.9182 7.79167H17.875V16.2708C17.875 17.1548 17.1548 17.875 16.2708 17.875H5.72917C4.84524 17.875 4.125 17.1548 4.125 16.2708V11.3478C3.64416 11.2578 3.18378 11.1125 2.75 10.9182V16.2708C2.75 17.9139 4.08612 19.25 5.72917 19.25H16.2708C17.9139 19.25 19.25 17.9139 19.25 16.2708V5.72917C19.25 4.08612 17.9139 2.75 16.2708 2.75H10.9182ZM11 9.625C10.3677 9.625 9.85417 10.1386 9.85417 10.7708C9.85417 11.4031 10.3677 11.9167 11 11.9167C11.6323 11.9167 12.1458 11.4031 12.1458 10.7708C12.1458 10.1386 11.6323 9.625 11 9.625ZM14.8958 9.625C14.2636 9.625 13.75 10.1386 13.75 10.7708C13.75 11.4031 14.2636 11.9167 14.8958 11.9167C15.5281 11.9167 16.0417 11.4031 16.0417 10.7708C16.0417 10.1386 15.5281 9.625 14.8958 9.625ZM7.10417 13.75C6.47191 13.75 5.95833 14.2636 5.95833 14.8958C5.95833 15.5281 6.47191 16.0417 7.10417 16.0417C7.73642 16.0417 8.25 15.5281 8.25 14.8958C8.25 14.2636 7.73642 13.75 7.10417 13.75ZM11 13.75C10.3677 13.75 9.85417 14.2636 9.85417 14.8958C9.85417 15.5281 10.3677 16.0417 11 16.0417C11.6323 16.0417 12.1458 15.5281 12.1458 14.8958C12.1458 14.2636 11.6323 13.75 11 13.75Z" fill="currentColor"/>
</svg>
