<svg fill="none" height="304" viewBox="0 0 335 304" width="335" xmlns="http://www.w3.org/2000/svg"><path d="m93.306 51.6836-33.0749-42.6836-33.0749 42.6836z" fill="#a51d32"/><path d="m0 303.008 60.2599-77.769.0068-.007h-60.2667z" fill="#a51d32"/><path d="m0 225.225h60.2273l-60.2273-77.727z" fill="#ffca11"/><path d="m0 147.438 60.5271-78.1176-.0068-.0136.0068-.0068h-60.5271z" fill="#aa8156"/><path d="m98.3885 218-36.3817 46.953-.0068.006h72.777z" fill="#aa8156"/><path d="m68 172 25.0873 32.376 25.0877-32.376z" fill="#a51d32"/><g fill="#ffca11"><path d="m332.08 5.77835c1.573 0 2.849-1.29354 2.849-2.88919 0-1.59564-1.276-2.88916-2.849-2.88916s-2.849 1.29352-2.849 2.88916c0 1.59565 1.276 2.88919 2.849 2.88919z"/><path d="m332.08 29.419c1.573 0 2.849-1.2936 2.849-2.8892 0-1.5957-1.276-2.8892-2.849-2.8892s-2.849 1.2935-2.849 2.8892c0 1.5956 1.276 2.8892 2.849 2.8892z"/><path d="m332.08 53.0576c1.573 0 2.849-1.2935 2.849-2.8891 0-1.5957-1.276-2.8892-2.849-2.8892s-2.849 1.2935-2.849 2.8892c0 1.5956 1.276 2.8891 2.849 2.8891z"/><path d="m309.552 5.77835c1.573 0 2.848-1.29354 2.848-2.88919 0-1.59564-1.275-2.88916-2.848-2.88916-1.574 0-2.849 1.29352-2.849 2.88916 0 1.59565 1.275 2.88919 2.849 2.88919z"/><path d="m309.552 29.419c1.573 0 2.848-1.2936 2.848-2.8892 0-1.5957-1.275-2.8892-2.848-2.8892-1.574 0-2.849 1.2935-2.849 2.8892 0 1.5956 1.275 2.8892 2.849 2.8892z"/><path d="m309.552 53.0576c1.573 0 2.848-1.2935 2.848-2.8891 0-1.5957-1.275-2.8892-2.848-2.8892-1.574 0-2.849 1.2935-2.849 2.8892 0 1.5956 1.275 2.8891 2.849 2.8891z"/><path d="m287.023 5.77835c1.573 0 2.849-1.29354 2.849-2.88919 0-1.59564-1.276-2.88916-2.849-2.88916s-2.848 1.29352-2.848 2.88916c0 1.59565 1.275 2.88919 2.848 2.88919z"/><path d="m287.023 29.419c1.573 0 2.849-1.2936 2.849-2.8892 0-1.5957-1.276-2.8892-2.849-2.8892s-2.848 1.2935-2.848 2.8892c0 1.5956 1.275 2.8892 2.848 2.8892z"/><path d="m287.023 53.0576c1.573 0 2.849-1.2935 2.849-2.8891 0-1.5957-1.276-2.8892-2.849-2.8892s-2.848 1.2935-2.848 2.8892c0 1.5956 1.275 2.8891 2.848 2.8891z"/><path d="m264.495 5.77835c1.573 0 2.849-1.29354 2.849-2.88919 0-1.59564-1.276-2.88916-2.849-2.88916s-2.849 1.29352-2.849 2.88916c0 1.59565 1.276 2.88919 2.849 2.88919z"/><path d="m264.495 29.419c1.573 0 2.849-1.2936 2.849-2.8892 0-1.5957-1.276-2.8892-2.849-2.8892s-2.849 1.2935-2.849 2.8892c0 1.5956 1.276 2.8892 2.849 2.8892z"/><path d="m264.495 53.0576c1.573 0 2.849-1.2935 2.849-2.8891 0-1.5957-1.276-2.8892-2.849-2.8892s-2.849 1.2935-2.849 2.8892c0 1.5956 1.276 2.8891 2.849 2.8891z"/><path d="m241.967 5.77835c1.573 0 2.848-1.29354 2.848-2.88919 0-1.59564-1.275-2.88916-2.848-2.88916-1.574 0-2.849 1.29352-2.849 2.88916 0 1.59565 1.275 2.88919 2.849 2.88919z"/><path d="m241.967 29.419c1.573 0 2.848-1.2936 2.848-2.8892 0-1.5957-1.275-2.8892-2.848-2.8892-1.574 0-2.849 1.2935-2.849 2.8892 0 1.5956 1.275 2.8892 2.849 2.8892z"/><path d="m241.967 53.0576c1.573 0 2.848-1.2935 2.848-2.8891 0-1.5957-1.275-2.8892-2.848-2.8892-1.574 0-2.849 1.2935-2.849 2.8892 0 1.5956 1.275 2.8891 2.849 2.8891z"/><path d="m219.437 5.77835c1.574 0 2.849-1.29354 2.849-2.88919 0-1.59564-1.275-2.88916-2.849-2.88916-1.573 0-2.848 1.29352-2.848 2.88916 0 1.59565 1.275 2.88919 2.848 2.88919z"/><path d="m219.437 29.419c1.574 0 2.849-1.2936 2.849-2.8892 0-1.5957-1.275-2.8892-2.849-2.8892-1.573 0-2.848 1.2935-2.848 2.8892 0 1.5956 1.275 2.8892 2.848 2.8892z"/><path d="m219.437 53.0576c1.574 0 2.849-1.2935 2.849-2.8891 0-1.5957-1.275-2.8892-2.849-2.8892-1.573 0-2.848 1.2935-2.848 2.8892 0 1.5956 1.275 2.8891 2.848 2.8891z"/><path d="m196.905 5.77835c1.573 0 2.849-1.29354 2.849-2.88919 0-1.59564-1.276-2.88916-2.849-2.88916s-2.848 1.29352-2.848 2.88916c0 1.59565 1.275 2.88919 2.848 2.88919z"/><path d="m196.905 29.419c1.573 0 2.849-1.2936 2.849-2.8892 0-1.5957-1.276-2.8892-2.849-2.8892s-2.848 1.2935-2.848 2.8892c0 1.5956 1.275 2.8892 2.848 2.8892z"/><path d="m196.905 53.0576c1.573 0 2.849-1.2935 2.849-2.8891 0-1.5957-1.276-2.8892-2.849-2.8892s-2.848 1.2935-2.848 2.8892c0 1.5956 1.275 2.8891 2.848 2.8891z"/><path d="m174.377 5.77835c1.573 0 2.848-1.29354 2.848-2.88919 0-1.59564-1.275-2.88916-2.848-2.88916s-2.849 1.29352-2.849 2.88916c0 1.59565 1.276 2.88919 2.849 2.88919z"/><path d="m174.377 29.419c1.573 0 2.848-1.2936 2.848-2.8892 0-1.5957-1.275-2.8892-2.848-2.8892s-2.849 1.2935-2.849 2.8892c0 1.5956 1.276 2.8892 2.849 2.8892z"/><path d="m174.377 53.0576c1.573 0 2.848-1.2935 2.848-2.8891 0-1.5957-1.275-2.8892-2.848-2.8892s-2.849 1.2935-2.849 2.8892c0 1.5956 1.276 2.8891 2.849 2.8891z"/><path d="m151.849 5.77835c1.573 0 2.848-1.29354 2.848-2.88919 0-1.59564-1.275-2.88916-2.848-2.88916-1.574 0-2.849 1.29352-2.849 2.88916 0 1.59565 1.275 2.88919 2.849 2.88919z"/><path d="m151.849 29.419c1.573 0 2.848-1.2936 2.848-2.8892 0-1.5957-1.275-2.8892-2.848-2.8892-1.574 0-2.849 1.2935-2.849 2.8892 0 1.5956 1.275 2.8892 2.849 2.8892z"/><path d="m151.849 53.0576c1.573 0 2.848-1.2935 2.848-2.8891 0-1.5957-1.275-2.8892-2.848-2.8892-1.574 0-2.849 1.2935-2.849 2.8892 0 1.5956 1.275 2.8891 2.849 2.8891z"/></g></svg>