<svg fill="none" height="315" viewBox="0 0 199 315" width="199" xmlns="http://www.w3.org/2000/svg"><path d="m48 111 25.0873 32.376 25.0875-32.376z" fill="#aa8156"/><path d="m174.972 248.001-39.399-50.845-39.3982 50.845z" fill="#ffca11"/><path d="m199 0-.008.00803804-71.984 92.98386196-.008.0081h72l-.008-.0081z" fill="#ffca11"/><path d="m197.969 186.379-.008.008h.017z" fill="#0d2333"/><path d="m199 93h-72l72 92.909z" fill="#a51d32"/><path d="m103.536 103.489 43.338-55.9382h-86.6836z" fill="#a51d32"/><g fill="#ffca11"><path d="m47.2803 311.966c0 1.573 1.2935 2.848 2.8891 2.848 1.5957 0 2.8892-1.275 2.8892-2.848 0-1.574-1.2935-2.849-2.8892-2.849-1.5956 0-2.8891 1.275-2.8891 2.849z"/><path d="m23.6396 311.966c0 1.573 1.2936 2.848 2.8892 2.848 1.5957 0 2.8892-1.275 2.8892-2.848 0-1.574-1.2935-2.849-2.8892-2.849-1.5956 0-2.8892 1.275-2.8892 2.849z"/><path d="m0 311.966c-.00000007 1.573 1.29351 2.848 2.88916 2.848s2.88916-1.275 2.88916-2.848c0-1.574-1.29351-2.849-2.88916-2.849s-2.88915993 1.275-2.88916 2.849z"/><path d="m47.2803 289.438c0 1.574 1.2935 2.849 2.8891 2.849 1.5957 0 2.8892-1.275 2.8892-2.849 0-1.573-1.2935-2.848-2.8892-2.848-1.5956 0-2.8891 1.275-2.8891 2.848z"/><path d="m23.6396 289.438c0 1.574 1.2936 2.849 2.8892 2.849 1.5957 0 2.8892-1.275 2.8892-2.849 0-1.573-1.2935-2.848-2.8892-2.848-1.5956 0-2.8892 1.275-2.8892 2.848z"/><path d="m0 289.438c-.00000007 1.574 1.29351 2.849 2.88916 2.849s2.88916-1.275 2.88916-2.849c0-1.573-1.29351-2.848-2.88916-2.848s-2.88915993 1.275-2.88916 2.848z"/><path d="m47.2803 266.905c0 1.573 1.2935 2.849 2.8891 2.849 1.5957 0 2.8892-1.276 2.8892-2.849s-1.2935-2.848-2.8892-2.848c-1.5956 0-2.8891 1.275-2.8891 2.848z"/><path d="m23.6396 266.905c0 1.573 1.2936 2.849 2.8892 2.849 1.5957 0 2.8892-1.276 2.8892-2.849s-1.2935-2.848-2.8892-2.848c-1.5956 0-2.8892 1.275-2.8892 2.848z"/><path d="m0 266.905c-.00000007 1.573 1.29351 2.849 2.88916 2.849s2.88916-1.276 2.88916-2.849-1.29351-2.848-2.88916-2.848-2.88915993 1.275-2.88916 2.848z"/><path d="m47.2803 244.378c0 1.573 1.2935 2.848 2.8891 2.848 1.5957 0 2.8892-1.275 2.8892-2.848s-1.2935-2.849-2.8892-2.849c-1.5956 0-2.8891 1.276-2.8891 2.849z"/><path d="m23.6396 244.378c0 1.573 1.2936 2.848 2.8892 2.848 1.5957 0 2.8892-1.275 2.8892-2.848s-1.2935-2.849-2.8892-2.849c-1.5956 0-2.8892 1.276-2.8892 2.849z"/><path d="m0 244.378c-.00000007 1.573 1.29351 2.848 2.88916 2.848s2.88916-1.275 2.88916-2.848-1.29351-2.849-2.88916-2.849-2.88915993 1.276-2.88916 2.849z"/><path d="m47.2803 221.849c0 1.573 1.2935 2.848 2.8891 2.848 1.5957 0 2.8892-1.275 2.8892-2.848 0-1.574-1.2935-2.849-2.8892-2.849-1.5956 0-2.8891 1.275-2.8891 2.849z"/><path d="m23.6396 221.849c0 1.573 1.2936 2.848 2.8892 2.848 1.5957 0 2.8892-1.275 2.8892-2.848 0-1.574-1.2935-2.849-2.8892-2.849-1.5956 0-2.8892 1.275-2.8892 2.849z"/><path d="m0 221.849c-.00000007 1.573 1.29351 2.848 2.88916 2.848s2.88916-1.275 2.88916-2.848c0-1.574-1.29351-2.849-2.88916-2.849s-2.88915993 1.275-2.88916 2.849z"/></g></svg>